<?xml version="1.0" standalone="no"?>
<!DOCTYPE svg PUBLIC "-//W3C//DTD SVG 20010904//EN"
 "http://www.w3.org/TR/2001/REC-SVG-20010904/DTD/svg10.dtd">
<svg version="1.0" xmlns="http://www.w3.org/2000/svg"
 width="126.000000pt" height="127.000000pt" viewBox="0 0 126.000000 127.000000"
 preserveAspectRatio="xMidYMid meet">

<g transform="translate(0.000000,127.000000) scale(0.100000,-0.100000)"
fill="#000000" stroke="none">
<path d="M287 1076 c-96 -35 -96 -36 -104 -485 l-6 -378 21 -21 c16 -16 34
-22 67 -22 52 0 85 25 85 65 l0 25 164 0 164 0 7 -30 c4 -16 16 -37 28 -45 32
-22 103 -19 127 5 19 19 20 33 19 293 0 360 -10 500 -36 535 -49 65 -55 67
-286 69 -161 2 -221 0 -250 -11z m485 -53 l22 -23 -277 0 c-152 0 -277 2 -277
5 0 3 15 14 33 25 30 19 46 20 254 18 216 -3 223 -4 245 -25z m43 -205 c4 -79
5 -163 3 -188 l-3 -45 -295 0 -295 0 -3 45 c-2 25 -1 109 3 188 l7 142 288 0
288 0 7 -142z m5 -398 l0 -120 -302 2 -303 3 -3 118 -3 117 306 0 305 0 0
-120z m-500 -173 c0 -34 -71 -52 -98 -25 -26 26 -13 38 43 38 38 0 55 -4 55
-13z m498 -9 c-2 -19 -10 -24 -42 -26 -38 -3 -56 8 -56 36 0 8 17 12 51 12 47
0 50 -2 47 -22z"/>
<path d="M290 470 c-42 -42 -13 -112 47 -112 31 0 63 33 63 67 0 26 -43 65
-71 65 -11 0 -28 -9 -39 -20z m65 -45 c0 -13 -8 -21 -22 -23 -17 -3 -23 2 -23
16 0 10 3 22 7 26 13 13 38 1 38 -19z"/>
<path d="M660 470 c-42 -42 -13 -112 47 -112 30 0 63 33 63 64 0 25 -44 68
-70 68 -11 0 -29 -9 -40 -20z m65 -45 c0 -13 -8 -21 -22 -23 -17 -3 -23 2 -23
16 0 10 3 22 7 26 13 13 38 1 38 -19z"/>
<path d="M456 401 c-11 -18 24 -32 71 -29 36 2 49 7 51 21 3 15 -5 17 -57 17
-33 0 -62 -4 -65 -9z"/>
<path d="M946 864 c-20 -20 -20 -43 0 -72 19 -27 48 -28 74 -2 36 36 16 90
-35 90 -13 0 -31 -7 -39 -16z"/>
<path d="M942 717 c-23 -24 -30 -67 -11 -67 11 0 9 -61 -8 -209 -5 -52 -5 -53
16 -41 12 6 24 25 28 41 l6 30 32 -31 c31 -30 32 -32 27 -105 -2 -41 -1 -82 2
-92 7 -17 8 -17 22 1 9 14 14 47 14 105 l0 85 -51 52 -52 52 7 56 c7 53 8 55
28 43 54 -33 66 -37 104 -37 46 0 71 19 52 38 -7 7 -32 12 -57 12 -40 0 -50 5
-91 45 l-46 45 -22 -23z"/>
</g>
</svg>
