<?xml version="1.0" standalone="no"?>
<!DOCTYPE svg PUBLIC "-//W3C//DTD SVG 20010904//EN"
 "http://www.w3.org/TR/2001/REC-SVG-20010904/DTD/svg10.dtd">
<svg version="1.0" xmlns="http://www.w3.org/2000/svg"
 width="124.000000pt" height="129.000000pt" viewBox="0 0 124.000000 129.000000"
 preserveAspectRatio="xMidYMid meet">

<g transform="translate(0.000000,129.000000) scale(0.100000,-0.100000)"
fill="#000000" stroke="none">
<path d="M257 1086 c-98 -36 -98 -38 -105 -491 -5 -378 -5 -380 17 -399 29
-26 102 -27 129 -2 12 10 22 30 24 45 l3 26 165 0 165 0 3 -26 c2 -15 12 -35
24 -45 28 -26 99 -25 127 0 20 18 21 28 21 245 -1 124 -5 301 -9 393 -14 261
-15 262 -316 265 -159 2 -219 0 -248 -11z m490 -61 l28 -24 -277 -1 c-168 0
-278 4 -278 9 0 6 10 17 22 25 19 13 60 16 250 16 l227 0 28 -25z m36 -142 c6
-69 11 -246 8 -280 -1 -10 -68 -13 -301 -13 l-300 0 0 88 c0 48 3 131 7 185
l6 97 287 0 287 0 6 -77z m17 -458 l0 -115 -305 0 -305 0 0 115 0 115 305 0
305 0 0 -115z m-512 -177 c-3 -20 -10 -23 -50 -26 -46 -3 -48 -2 -48 22 0 24
3 26 51 26 47 0 50 -2 47 -22z m506 13 c15 -23 -7 -41 -49 -41 -45 0 -61 11
-51 35 6 17 91 21 100 6z"/>
<path d="M256 468 c-22 -30 -20 -60 4 -86 26 -27 64 -28 90 -2 41 41 13 110
-45 110 -24 0 -39 -7 -49 -22z m74 -38 c0 -24 -26 -38 -42 -22 -16 16 -2 42
22 42 13 0 20 -7 20 -20z"/>
<path d="M626 468 c-22 -31 -20 -64 6 -88 28 -25 62 -26 88 0 41 41 13 110
-45 110 -24 0 -39 -7 -49 -22z m74 -38 c0 -24 -26 -38 -42 -22 -16 16 -2 42
22 42 13 0 20 -7 20 -20z"/>
<path d="M432 403 c2 -14 15 -19 51 -21 47 -3 82 11 71 29 -3 5 -32 9 -65 9
-52 0 -60 -2 -57 -17z"/>
<path d="M927 832 c-23 -25 -21 -65 4 -88 19 -17 23 -17 47 -3 33 18 41 62 16
90 -22 24 -46 24 -67 1z"/>
<path d="M927 652 c-22 -22 -37 -48 -37 -62 l0 -24 30 29 c16 16 32 27 34 24
2 -2 6 -28 7 -57 3 -48 0 -55 -34 -90 l-37 -38 2 -84 c2 -73 2 -77 5 -25 3 48
9 65 30 88 15 15 30 27 33 27 4 0 10 -30 14 -67 11 -102 26 -163 41 -163 22 0
24 13 14 61 -13 56 -37 339 -29 339 16 0 51 -52 84 -123 32 -71 56 -93 56 -51
0 39 -70 163 -115 205 -26 24 -50 45 -54 47 -4 1 -23 -15 -44 -36z"/>
</g>
</svg>
